<svg xmlns="http://www.w3.org/2000/svg" viewBox="0 0 1200 320" role="img" aria-label="hyenovel — 陪你拆解故事骨幹的討論夥伴"><title>hyenovel</title><defs><radialGradient id="bsky" cx="50%" cy="34%" r="78%"><stop offset="0%" stop-color="#15140f"/><stop offset="52%" stop-color="#0c0b09"/><stop offset="100%" stop-color="#050504"/></radialGradient><radialGradient id="bhz" cx="48%" cy="102%" r="66%"><stop offset="0%" stop-color="#ecc98a" stop-opacity="0.13"/><stop offset="100%" stop-color="#ecc98a" stop-opacity="0"/></radialGradient><filter id="bglow" x="-60%" y="-60%" width="220%" height="220%"><feGaussianBlur stdDeviation="4.5" result="b"/><feMerge><feMergeNode in="b"/><feMergeNode in="SourceGraphic"/></feMerge></filter></defs><rect width="1200" height="320" fill="url(#bsky)"/><rect width="1200" height="320" fill="url(#bhz)"/><circle cx="945.6" cy="156.9" r="0.93" fill="#efe6cf" fill-opacity="0.54"/><circle cx="859.6" cy="20.2" r="1.09" fill="#efe6cf" fill-opacity="0.41"/><circle cx="562.8" cy="76.0" r="0.39" fill="#efe6cf" fill-opacity="0.08"/><circle cx="707.9" cy="213.4" r="0.42" fill="#efe6cf" fill-opacity="0.36"/><circle cx="787.8" cy="163.3" r="0.44" fill="#efe6cf" fill-opacity="0.49"/><circle cx="612.5" cy="186.3" r="0.43" fill="#efe6cf" fill-opacity="0.12"/><circle cx="1140.6" cy="83.6" r="0.75" fill="#efe6cf" fill-opacity="0.61"/><circle cx="299.8" cy="78.8" r="0.47" fill="#efe6cf" fill-opacity="0.14"/><circle cx="515.8" cy="120.4" r="0.98" fill="#ecc98a" fill-opacity="0.20"/><circle cx="1133.2" cy="26.6" r="0.97" fill="#efe6cf" fill-opacity="0.46"/><circle cx="102.3" cy="206.9" r="0.83" fill="#efe6cf" fill-opacity="0.18"/><circle cx="848.4" cy="242.8" r="1.13" fill="#efe6cf" fill-opacity="0.58"/><circle cx="803.8" cy="211.3" r="0.86" fill="#efe6cf" fill-opacity="0.66"/><circle cx="866.8" cy="80.8" r="0.55" fill="#efe6cf" fill-opacity="0.35"/><circle cx="214.3" cy="220.7" r="0.97" fill="#efe6cf" fill-opacity="0.13"/><circle cx="995.3" cy="212.5" r="0.42" fill="#efe6cf" fill-opacity="0.64"/><circle cx="1078.6" cy="180.2" r="0.89" fill="#efe6cf" fill-opacity="0.77"/><circle cx="634.2" cy="72.4" r="1.01" fill="#ecc98a" fill-opacity="0.22"/><circle cx="295.6" cy="203.6" r="1.08" fill="#ecc98a" fill-opacity="0.10"/><circle cx="587.5" cy="250.1" r="1.01" fill="#ecc98a" fill-opacity="0.58"/><circle cx="175.1" cy="222.0" r="0.43" fill="#efe6cf" fill-opacity="0.21"/><circle cx="1024.6" cy="83.2" r="0.97" fill="#efe6cf" fill-opacity="0.54"/><circle cx="840.8" cy="147.9" r="1.09" fill="#efe6cf" fill-opacity="0.54"/><circle cx="60.2" cy="73.2" r="1.12" fill="#efe6cf" fill-opacity="0.25"/><circle cx="28.4" cy="52.4" r="0.41" fill="#efe6cf" fill-opacity="0.66"/><circle cx="1101.7" cy="178.2" r="0.61" fill="#efe6cf" fill-opacity="0.73"/><circle cx="93.9" cy="109.2" r="0.93" fill="#efe6cf" fill-opacity="0.08"/><circle cx="1171.1" cy="238.2" r="0.88" fill="#efe6cf" fill-opacity="0.51"/><circle cx="141.9" cy="147.5" r="0.41" fill="#efe6cf" fill-opacity="0.20"/><circle cx="1085.3" cy="226.3" r="0.72" fill="#ecc98a" fill-opacity="0.71"/><circle cx="66.9" cy="149.9" r="0.86" fill="#ecc98a" fill-opacity="0.62"/><circle cx="460.6" cy="185.9" r="1.05" fill="#ecc98a" fill-opacity="0.22"/><circle cx="1114.8" cy="192.3" r="0.67" fill="#efe6cf" fill-opacity="0.30"/><circle cx="75.3" cy="31.4" r="0.91" fill="#efe6cf" fill-opacity="0.62"/><circle cx="48.6" cy="20.4" r="1.14" fill="#efe6cf" fill-opacity="0.46"/><circle cx="434.5" cy="49.3" r="0.72" fill="#ecc98a" fill-opacity="0.41"/><circle cx="263.9" cy="92.3" r="0.85" fill="#ecc98a" fill-opacity="0.16"/><circle cx="195.4" cy="46.2" r="1.03" fill="#efe6cf" fill-opacity="0.43"/><circle cx="55.8" cy="44.3" r="0.37" fill="#efe6cf" fill-opacity="0.33"/><circle cx="505.7" cy="32.8" r="0.49" fill="#efe6cf" fill-opacity="0.68"/><circle cx="796.7" cy="180.7" r="0.73" fill="#efe6cf" fill-opacity="0.77"/><circle cx="316.8" cy="139.1" r="0.82" fill="#ecc98a" fill-opacity="0.13"/><circle cx="234.1" cy="154.7" r="0.66" fill="#ecc98a" fill-opacity="0.21"/><circle cx="768.3" cy="210.0" r="0.51" fill="#efe6cf" fill-opacity="0.71"/><circle cx="821.3" cy="48.7" r="0.58" fill="#efe6cf" fill-opacity="0.33"/><circle cx="182.1" cy="211.0" r="0.88" fill="#efe6cf" fill-opacity="0.16"/><circle cx="382.3" cy="67.7" r="0.59" fill="#efe6cf" fill-opacity="0.29"/><circle cx="475.0" cy="43.0" r="0.78" fill="#efe6cf" fill-opacity="0.70"/><circle cx="526.7" cy="130.1" r="1.07" fill="#efe6cf" fill-opacity="0.12"/><circle cx="31.4" cy="29.1" r="1.00" fill="#efe6cf" fill-opacity="0.48"/><circle cx="931.6" cy="154.4" r="1.11" fill="#ecc98a" fill-opacity="0.36"/><circle cx="447.0" cy="27.7" r="0.95" fill="#efe6cf" fill-opacity="0.61"/><circle cx="543.9" cy="31.4" r="0.79" fill="#efe6cf" fill-opacity="0.67"/><circle cx="905.0" cy="10.0" r="0.65" fill="#efe6cf" fill-opacity="0.38"/><circle cx="886.0" cy="146.6" r="0.66" fill="#efe6cf" fill-opacity="0.60"/><circle cx="269.8" cy="68.9" r="0.51" fill="#efe6cf" fill-opacity="0.70"/><circle cx="105.2" cy="113.6" r="0.85" fill="#efe6cf" fill-opacity="0.08"/><circle cx="131.1" cy="15.8" r="0.80" fill="#efe6cf" fill-opacity="0.80"/><circle cx="55.6" cy="24.8" r="0.76" fill="#efe6cf" fill-opacity="0.41"/><circle cx="392.6" cy="13.3" r="1.09" fill="#efe6cf" fill-opacity="0.48"/><circle cx="736.4" cy="197.0" r="0.81" fill="#ecc98a" fill-opacity="0.55"/><circle cx="927.5" cy="248.9" r="0.79" fill="#efe6cf" fill-opacity="0.48"/><circle cx="264.3" cy="109.6" r="0.85" fill="#efe6cf" fill-opacity="0.17"/><circle cx="480.0" cy="161.1" r="0.67" fill="#efe6cf" fill-opacity="0.08"/><circle cx="1039.1" cy="98.3" r="0.71" fill="#efe6cf" fill-opacity="0.79"/><circle cx="1054.1" cy="121.2" r="0.69" fill="#efe6cf" fill-opacity="0.65"/><circle cx="2.7" cy="68.5" r="0.76" fill="#efe6cf" fill-opacity="0.51"/><circle cx="859.9" cy="113.5" r="0.77" fill="#ecc98a" fill-opacity="0.33"/><circle cx="295.8" cy="65.6" r="0.53" fill="#efe6cf" fill-opacity="0.72"/><circle cx="891.6" cy="102.8" r="0.73" fill="#efe6cf" fill-opacity="0.65"/><circle cx="323.7" cy="219.7" r="0.88" fill="#efe6cf" fill-opacity="0.21"/><circle cx="42.9" cy="230.6" r="0.88" fill="#ecc98a" fill-opacity="0.45"/><circle cx="339.9" cy="158.0" r="0.93" fill="#ecc98a" fill-opacity="0.13"/><circle cx="1134.9" cy="164.0" r="0.80" fill="#ecc98a" fill-opacity="0.42"/><circle cx="1131.0" cy="51.8" r="0.92" fill="#ecc98a" fill-opacity="0.78"/><circle cx="924.9" cy="38.7" r="0.56" fill="#efe6cf" fill-opacity="0.70"/><circle cx="230.6" cy="0.7" r="0.86" fill="#efe6cf" fill-opacity="0.54"/><circle cx="853.3" cy="174.3" r="1.05" fill="#efe6cf" fill-opacity="0.70"/><circle cx="1059.9" cy="70.5" r="1.12" fill="#efe6cf" fill-opacity="0.47"/><circle cx="538.2" cy="242.0" r="0.42" fill="#efe6cf" fill-opacity="0.55"/><circle cx="1003.6" cy="169.5" r="0.85" fill="#ecc98a" fill-opacity="0.66"/><circle cx="927.4" cy="209.1" r="1.10" fill="#efe6cf" fill-opacity="0.41"/><circle cx="305.2" cy="37.9" r="0.32" fill="#efe6cf" fill-opacity="0.39"/><circle cx="202.2" cy="111.4" r="1.00" fill="#ecc98a" fill-opacity="0.22"/><circle cx="1021.5" cy="82.5" r="0.70" fill="#efe6cf" fill-opacity="0.60"/><circle cx="200.8" cy="18.1" r="0.73" fill="#efe6cf" fill-opacity="0.79"/><circle cx="208.8" cy="55.3" r="0.89" fill="#efe6cf" fill-opacity="0.60"/><circle cx="52.3" cy="221.0" r="0.72" fill="#efe6cf" fill-opacity="0.44"/><circle cx="899.2" cy="53.2" r="1.02" fill="#ecc98a" fill-opacity="0.76"/><circle cx="1196.6" cy="123.8" r="0.31" fill="#ecc98a" fill-opacity="0.70"/><circle cx="656.6" cy="113.9" r="1.07" fill="#ecc98a" fill-opacity="0.09"/><circle cx="391.3" cy="219.5" r="1.09" fill="#efe6cf" fill-opacity="0.22"/><circle cx="331.8" cy="159.2" r="0.58" fill="#efe6cf" fill-opacity="0.12"/><circle cx="856.1" cy="253.9" r="0.57" fill="#ecc98a" fill-opacity="0.53"/><circle cx="322.7" cy="157.3" r="0.37" fill="#efe6cf" fill-opacity="0.19"/><circle cx="356.6" cy="223.4" r="0.61" fill="#ecc98a" fill-opacity="0.19"/><circle cx="887.7" cy="187.6" r="1.08" fill="#ecc98a" fill-opacity="0.41"/><circle cx="278.8" cy="9.2" r="0.89" fill="#efe6cf" fill-opacity="0.79"/><circle cx="603.0" cy="167.2" r="1.07" fill="#efe6cf" fill-opacity="0.11"/><circle cx="312.6" cy="256.3" r="0.64" fill="#efe6cf" fill-opacity="0.56"/><circle cx="666.9" cy="17.3" r="0.88" fill="#efe6cf" fill-opacity="0.76"/><circle cx="1086.8" cy="23.9" r="1.03" fill="#ecc98a" fill-opacity="0.46"/><circle cx="911.7" cy="207.1" r="0.75" fill="#efe6cf" fill-opacity="0.37"/><circle cx="662.3" cy="131.8" r="0.46" fill="#efe6cf" fill-opacity="0.15"/><circle cx="385.7" cy="48.6" r="0.98" fill="#efe6cf" fill-opacity="0.76"/><circle cx="1167.1" cy="248.3" r="0.43" fill="#ecc98a" fill-opacity="0.63"/><circle cx="45.3" cy="1.9" r="0.73" fill="#efe6cf" fill-opacity="0.51"/><circle cx="518.8" cy="48.8" r="0.87" fill="#efe6cf" fill-opacity="0.27"/><circle cx="142.7" cy="191.1" r="0.48" fill="#efe6cf" fill-opacity="0.11"/><circle cx="666.9" cy="243.3" r="1.15" fill="#ecc98a" fill-opacity="0.34"/><circle cx="150" cy="52" r="1.7" fill="#f6edd6" filter="url(#bglow)"/><circle cx="300" cy="32" r="1.7" fill="#f6edd6" filter="url(#bglow)"/><circle cx="660" cy="44" r="1.7" fill="#f6edd6" filter="url(#bglow)"/><circle cx="1160" cy="266" r="1.7" fill="#f6edd6" filter="url(#bglow)"/><g transform="translate(700,60) scale(1.2)" filter="url(#bglow)"><path d="M18,133.76 C22.151515151515152,130.53 34.6060606060606,119.76333333333335 42.90909090909091,114.38000000000001 C51.21212121212121,108.99666666666667 59.51515151515151,100.38333333333333 67.81818181818181,101.46 C76.12121212121212,102.53666666666666 84.42424242424244,119.76333333333334 92.72727272727273,120.84 C101.03030303030303,121.91666666666667 109.33333333333334,113.30333333333334 117.63636363636364,107.92 C125.93939393939394,102.53666666666666 134.24242424242425,99.30666666666666 142.54545454545456,88.53999999999999 C150.84848484848487,77.77333333333333 159.15151515151516,53.00999999999999 167.45454545454547,43.31999999999999 C175.75757575757578,33.629999999999995 184.06060606060606,21.786666666666655 192.36363636363637,30.39999999999999 C200.66666666666669,39.01333333333333 208.96969696969697,85.31 217.27272727272728,95 C225.5757575757576,104.69 233.87878787878788,92.84666666666666 242.1818181818182,88.53999999999999 C250.4848484848485,84.23333333333332 258.7878787878788,71.31333333333333 267.0909090909091,69.16 C275.39393939393943,67.00666666666666 287.8484848484849,74.54333333333332 292,75.61999999999999" fill="none" stroke="#efe6cf" stroke-width="2.2" stroke-linecap="round"/><line x1="226.2" y1="92.7" x2="227.7" y2="98.5" stroke="#dccfae" stroke-width="1.1" stroke-opacity="0.38"/><line x1="86.5" y1="116.0" x2="82.8" y2="120.7" stroke="#dccfae" stroke-width="1.1" stroke-opacity="0.38"/><line x1="113.9" y1="109.9" x2="116.7" y2="115.2" stroke="#dccfae" stroke-width="1.1" stroke-opacity="0.38"/><line x1="179.7" y1="37.0" x2="182.4" y2="42.3" stroke="#dccfae" stroke-width="1.1" stroke-opacity="0.38"/><line x1="20.7" y1="131.6" x2="17.1" y2="126.9" stroke="#dccfae" stroke-width="1.1" stroke-opacity="0.38"/><line x1="113.9" y1="109.9" x2="111.1" y2="104.5" stroke="#dccfae" stroke-width="1.1" stroke-opacity="0.38"/><line x1="31.7" y1="123.1" x2="28.0" y2="118.4" stroke="#dccfae" stroke-width="1.1" stroke-opacity="0.38"/><line x1="23.5" y1="129.5" x2="19.8" y2="124.8" stroke="#dccfae" stroke-width="1.1" stroke-opacity="0.38"/><line x1="39.9" y1="116.7" x2="36.2" y2="112.0" stroke="#dccfae" stroke-width="1.1" stroke-opacity="0.38"/><line x1="226.2" y1="92.7" x2="215.7" y2="52.0" stroke="#dccfae" stroke-width="1.1" stroke-linecap="round" stroke-opacity="0.76"/><line x1="86.5" y1="116.0" x2="120.9" y2="71.8" stroke="#dccfae" stroke-width="1.1" stroke-linecap="round" stroke-opacity="0.76"/><line x1="113.9" y1="109.9" x2="88.1" y2="60.1" stroke="#dccfae" stroke-width="1.1" stroke-linecap="round" stroke-opacity="0.76"/><line x1="179.7" y1="37.0" x2="153.9" y2="-12.7" stroke="#dccfae" stroke-width="1.1" stroke-linecap="round" stroke-opacity="0.76"/><line x1="20.7" y1="131.6" x2="63.7" y2="186.9" stroke="#dccfae" stroke-width="1.1" stroke-linecap="round" stroke-opacity="0.76"/><line x1="113.9" y1="109.9" x2="139.7" y2="159.6" stroke="#dccfae" stroke-width="1.1" stroke-linecap="round" stroke-opacity="0.76"/><line x1="31.7" y1="123.1" x2="66.1" y2="167.3" stroke="#dccfae" stroke-width="1.1" stroke-linecap="round" stroke-opacity="0.76"/><line x1="23.5" y1="129.5" x2="40.7" y2="151.6" stroke="#dccfae" stroke-width="1.1" stroke-linecap="round" stroke-opacity="0.76"/><line x1="39.9" y1="116.7" x2="74.3" y2="160.9" stroke="#dccfae" stroke-width="1.1" stroke-linecap="round" stroke-opacity="0.76"/><circle cx="215.7" cy="52.0" r="4" fill="#ecc98a"/><circle cx="120.9" cy="71.8" r="4" fill="#ecc98a"/><circle cx="88.1" cy="60.1" r="4" fill="#ecc98a"/><circle cx="153.9" cy="-12.7" r="4" fill="#ecc98a"/><circle cx="63.7" cy="186.9" r="2.6" fill="#f3ead2"/><circle cx="139.7" cy="159.6" r="2.6" fill="#f3ead2"/><circle cx="66.1" cy="167.3" r="2.6" fill="#f3ead2"/><circle cx="40.7" cy="151.6" r="2.6" fill="#f3ead2"/><circle cx="74.3" cy="160.9" r="2.6" fill="#f3ead2"/></g><g transform="translate(92,96) scale(9)" shape-rendering="crispEdges"><rect x="3" y="0" width="1.02" height="1.02" fill="#c9a86a"/><rect x="4" y="0" width="1.02" height="1.02" fill="#c9a86a"/><rect x="11" y="0" width="1.02" height="1.02" fill="#c9a86a"/><rect x="12" y="0" width="1.02" height="1.02" fill="#c9a86a"/><rect x="2" y="1" width="1.02" height="1.02" fill="#c9a86a"/><rect x="3" y="1" width="1.02" height="1.02" fill="#c9a86a"/><rect x="4" y="1" width="1.02" height="1.02" fill="#c9a86a"/><rect x="5" y="1" width="1.02" height="1.02" fill="#c9a86a"/><rect x="10" y="1" width="1.02" height="1.02" fill="#c9a86a"/><rect x="11" y="1" width="1.02" height="1.02" fill="#c9a86a"/><rect x="12" y="1" width="1.02" height="1.02" fill="#c9a86a"/><rect x="13" y="1" width="1.02" height="1.02" fill="#c9a86a"/><rect x="2" y="2" width="1.02" height="1.02" fill="#c9a86a"/><rect x="5" y="2" width="1.02" height="1.02" fill="#c9a86a"/><rect x="10" y="2" width="1.02" height="1.02" fill="#c9a86a"/><rect x="13" y="2" width="1.02" height="1.02" fill="#c9a86a"/><rect x="2" y="3" width="1.02" height="1.02" fill="#c9a86a"/><rect x="3" y="3" width="1.02" height="1.02" fill="#c9a86a"/><rect x="4" y="3" width="1.02" height="1.02" fill="#c9a86a"/><rect x="5" y="3" width="1.02" height="1.02" fill="#c9a86a"/><rect x="6" y="3" width="1.02" height="1.02" fill="#c9a86a"/><rect x="7" y="3" width="1.02" height="1.02" fill="#c9a86a"/><rect x="8" y="3" width="1.02" height="1.02" fill="#c9a86a"/><rect x="9" y="3" width="1.02" height="1.02" fill="#c9a86a"/><rect x="10" y="3" width="1.02" height="1.02" fill="#c9a86a"/><rect x="11" y="3" width="1.02" height="1.02" fill="#c9a86a"/><rect x="12" y="3" width="1.02" height="1.02" fill="#c9a86a"/><rect x="13" y="3" width="1.02" height="1.02" fill="#c9a86a"/><rect x="3" y="4" width="1.02" height="1.02" fill="#c9a86a"/><rect x="4" y="4" width="1.02" height="1.02" fill="#c9a86a"/><rect x="5" y="4" width="1.02" height="1.02" fill="#c9a86a"/><rect x="6" y="4" width="1.02" height="1.02" fill="#c9a86a"/><rect x="7" y="4" width="1.02" height="1.02" fill="#c9a86a"/><rect x="8" y="4" width="1.02" height="1.02" fill="#c9a86a"/><rect x="9" y="4" width="1.02" height="1.02" fill="#c9a86a"/><rect x="10" y="4" width="1.02" height="1.02" fill="#c9a86a"/><rect x="11" y="4" width="1.02" height="1.02" fill="#c9a86a"/><rect x="12" y="4" width="1.02" height="1.02" fill="#c9a86a"/><rect x="3" y="5" width="1.02" height="1.02" fill="#c9a86a"/><rect x="4" y="5" width="1.02" height="1.02" fill="#c9a86a"/><rect x="5" y="5" width="1.02" height="1.02" fill="#c9a86a"/><rect x="6" y="5" width="1.02" height="1.02" fill="#c9a86a"/><rect x="7" y="5" width="1.02" height="1.02" fill="#c9a86a"/><rect x="8" y="5" width="1.02" height="1.02" fill="#c9a86a"/><rect x="9" y="5" width="1.02" height="1.02" fill="#c9a86a"/><rect x="10" y="5" width="1.02" height="1.02" fill="#c9a86a"/><rect x="11" y="5" width="1.02" height="1.02" fill="#c9a86a"/><rect x="12" y="5" width="1.02" height="1.02" fill="#c9a86a"/><rect x="3" y="6" width="1.02" height="1.02" fill="#c9a86a"/><rect x="4" y="6" width="1.02" height="1.02" fill="#c9a86a"/><rect x="5" y="6" width="1.02" height="1.02" fill="#c9a86a"/><rect x="6" y="6" width="1.02" height="1.02" fill="#c9a86a"/><rect x="7" y="6" width="1.02" height="1.02" fill="#c9a86a"/><rect x="8" y="6" width="1.02" height="1.02" fill="#c9a86a"/><rect x="9" y="6" width="1.02" height="1.02" fill="#c9a86a"/><rect x="10" y="6" width="1.02" height="1.02" fill="#c9a86a"/><rect x="11" y="6" width="1.02" height="1.02" fill="#c9a86a"/><rect x="12" y="6" width="1.02" height="1.02" fill="#c9a86a"/><rect x="3" y="7" width="1.02" height="1.02" fill="#c9a86a"/><rect x="4" y="7" width="1.02" height="1.02" fill="#c9a86a"/><rect x="5" y="7" width="1.02" height="1.02" fill="#c9a86a"/><rect x="6" y="7" width="1.02" height="1.02" fill="#c9a86a"/><rect x="7" y="7" width="1.02" height="1.02" fill="#c9a86a"/><rect x="8" y="7" width="1.02" height="1.02" fill="#c9a86a"/><rect x="9" y="7" width="1.02" height="1.02" fill="#c9a86a"/><rect x="10" y="7" width="1.02" height="1.02" fill="#c9a86a"/><rect x="11" y="7" width="1.02" height="1.02" fill="#c9a86a"/><rect x="12" y="7" width="1.02" height="1.02" fill="#c9a86a"/><rect x="4" y="8" width="1.02" height="1.02" fill="#c9a86a"/><rect x="5" y="8" width="1.02" height="1.02" fill="#c9a86a"/><rect x="6" y="8" width="1.02" height="1.02" fill="#c9a86a"/><rect x="7" y="8" width="1.02" height="1.02" fill="#c9a86a"/><rect x="8" y="8" width="1.02" height="1.02" fill="#c9a86a"/><rect x="9" y="8" width="1.02" height="1.02" fill="#c9a86a"/><rect x="10" y="8" width="1.02" height="1.02" fill="#c9a86a"/><rect x="11" y="8" width="1.02" height="1.02" fill="#c9a86a"/><rect x="4" y="9" width="1.02" height="1.02" fill="#c9a86a"/><rect x="5" y="9" width="1.02" height="1.02" fill="#c9a86a"/><rect x="6" y="9" width="1.02" height="1.02" fill="#c9a86a"/><rect x="7" y="9" width="1.02" height="1.02" fill="#c9a86a"/><rect x="8" y="9" width="1.02" height="1.02" fill="#c9a86a"/><rect x="9" y="9" width="1.02" height="1.02" fill="#c9a86a"/><rect x="10" y="9" width="1.02" height="1.02" fill="#c9a86a"/><rect x="11" y="9" width="1.02" height="1.02" fill="#c9a86a"/><rect x="5" y="10" width="1.02" height="1.02" fill="#c9a86a"/><rect x="6" y="10" width="1.02" height="1.02" fill="#c9a86a"/><rect x="7" y="10" width="1.02" height="1.02" fill="#c9a86a"/><rect x="8" y="10" width="1.02" height="1.02" fill="#c9a86a"/><rect x="9" y="10" width="1.02" height="1.02" fill="#c9a86a"/><rect x="10" y="10" width="1.02" height="1.02" fill="#c9a86a"/><rect x="6" y="11" width="1.02" height="1.02" fill="#c9a86a"/><rect x="7" y="11" width="1.02" height="1.02" fill="#c9a86a"/><rect x="8" y="11" width="1.02" height="1.02" fill="#c9a86a"/><rect x="9" y="11" width="1.02" height="1.02" fill="#c9a86a"/><rect x="7" y="12" width="1.02" height="1.02" fill="#c9a86a"/><rect x="8" y="12" width="1.02" height="1.02" fill="#c9a86a"/><rect x="3" y="4" width="1.02" height="1.02" fill="#e2c98a"/><rect x="4" y="4" width="1.02" height="1.02" fill="#e2c98a"/><rect x="3" y="5" width="1.02" height="1.02" fill="#e2c98a"/><rect x="12" y="5" width="1.02" height="1.02" fill="#8f6f3a"/><rect x="12" y="6" width="1.02" height="1.02" fill="#8f6f3a"/><rect x="11" y="7" width="1.02" height="1.02" fill="#8f6f3a"/><rect x="11" y="8" width="1.02" height="1.02" fill="#8f6f3a"/><rect x="11" y="9" width="1.02" height="1.02" fill="#8f6f3a"/><rect x="10" y="10" width="1.02" height="1.02" fill="#8f6f3a"/><rect x="9" y="11" width="1.02" height="1.02" fill="#8f6f3a"/><rect x="8" y="4" width="1.02" height="1.02" fill="#8f6f3a"/><rect x="5" y="8" width="1.02" height="1.02" fill="#8f6f3a"/><rect x="5" y="6" width="1.02" height="1.02" fill="#8f6f3a"/><rect x="6" y="6" width="1.02" height="1.02" fill="#8f6f3a"/><rect x="9" y="6" width="1.02" height="1.02" fill="#8f6f3a"/><rect x="10" y="6" width="1.02" height="1.02" fill="#8f6f3a"/><rect x="3" y="2" width="1.02" height="1.02" fill="#4a3a22"/><rect x="4" y="2" width="1.02" height="1.02" fill="#4a3a22"/><rect x="11" y="2" width="1.02" height="1.02" fill="#4a3a22"/><rect x="12" y="2" width="1.02" height="1.02" fill="#4a3a22"/><rect x="6" y="9" width="1.02" height="1.02" fill="#4a3a22"/><rect x="7" y="9" width="1.02" height="1.02" fill="#4a3a22"/><rect x="8" y="9" width="1.02" height="1.02" fill="#4a3a22"/><rect x="9" y="9" width="1.02" height="1.02" fill="#4a3a22"/><rect x="7" y="12" width="1.02" height="1.02" fill="#4a3a22"/><rect x="8" y="12" width="1.02" height="1.02" fill="#4a3a22"/><rect x="5" y="7" width="1.02" height="1.02" fill="#241b12"/><rect x="10" y="7" width="1.02" height="1.02" fill="#241b12"/><rect x="7" y="10" width="1.02" height="1.02" fill="#241b12"/><rect x="8" y="10" width="1.02" height="1.02" fill="#241b12"/></g><text x="268" y="150" fill="#efe6cf" font-size="86" font-weight="600" font-family="'Source Han Serif TC','Noto Serif TC',Georgia,serif" letter-spacing="7">hyenovel</text><text x="272" y="196" fill="#e8e3d6" font-size="29" font-weight="600" font-family="'Source Han Serif TC','Noto Serif TC',Georgia,serif" letter-spacing="3">陪你拆解故事骨幹的討論夥伴</text><text x="274" y="228" fill="#9a9488" font-size="17" font-family="'Inter','Noto Sans TC',sans-serif" letter-spacing="0.5">觀察與判斷隔離的兩個 AI　·　逐字有據　·　反諂媚</text></svg>
