<svg xmlns="http://www.w3.org/2000/svg" viewBox="0 0 1200 240" role="img" aria-label="hyenovel"><title>hyenovel</title><defs><radialGradient id="fsky" cx="50%" cy="34%" r="78%"><stop offset="0%" stop-color="#15140f"/><stop offset="52%" stop-color="#0c0b09"/><stop offset="100%" stop-color="#050504"/></radialGradient><linearGradient id="fdiv" x1="0" y1="0" x2="1" y2="0"><stop offset="0%" stop-color="#ecc98a" stop-opacity="0"/><stop offset="50%" stop-color="#ecc98a" stop-opacity="0.55"/><stop offset="100%" stop-color="#ecc98a" stop-opacity="0"/></linearGradient></defs><rect width="1200" height="240" fill="url(#fsky)"/><circle cx="514.1" cy="22.2" r="0.70" fill="#ecc98a" fill-opacity="0.49"/><circle cx="624.2" cy="36.0" r="0.91" fill="#efe6cf" fill-opacity="0.36"/><circle cx="204.9" cy="29.0" r="0.59" fill="#efe6cf" fill-opacity="0.60"/><circle cx="685.6" cy="135.1" r="0.53" fill="#ecc98a" fill-opacity="0.10"/><circle cx="1108.9" cy="97.7" r="0.60" fill="#efe6cf" fill-opacity="0.48"/><circle cx="531.8" cy="68.9" r="0.99" fill="#efe6cf" fill-opacity="0.09"/><circle cx="774.7" cy="1.3" r="0.67" fill="#efe6cf" fill-opacity="0.70"/><circle cx="744.2" cy="161.0" r="1.09" fill="#ecc98a" fill-opacity="0.21"/><circle cx="161.5" cy="82.8" r="0.84" fill="#efe6cf" fill-opacity="0.50"/><circle cx="642.1" cy="59.1" r="0.34" fill="#efe6cf" fill-opacity="0.50"/><circle cx="783.2" cy="150.2" r="0.39" fill="#efe6cf" fill-opacity="0.23"/><circle cx="93.5" cy="146.2" r="0.55" fill="#efe6cf" fill-opacity="0.51"/><circle cx="742.7" cy="128.3" r="0.81" fill="#efe6cf" fill-opacity="0.12"/><circle cx="104.7" cy="140.6" r="0.87" fill="#ecc98a" fill-opacity="0.75"/><circle cx="1198.7" cy="59.9" r="1.11" fill="#ecc98a" fill-opacity="0.45"/><circle cx="735.5" cy="143.8" r="1.12" fill="#efe6cf" fill-opacity="0.10"/><circle cx="376.6" cy="146.6" r="0.80" fill="#efe6cf" fill-opacity="0.78"/><circle cx="901.7" cy="178.1" r="0.32" fill="#efe6cf" fill-opacity="0.28"/><circle cx="993.4" cy="115.9" r="0.70" fill="#efe6cf" fill-opacity="0.25"/><circle cx="791.2" cy="35.0" r="0.58" fill="#efe6cf" fill-opacity="0.69"/><circle cx="333.1" cy="141.4" r="0.63" fill="#efe6cf" fill-opacity="0.28"/><circle cx="1185.5" cy="28.5" r="0.64" fill="#ecc98a" fill-opacity="0.25"/><circle cx="357.5" cy="141.3" r="0.98" fill="#efe6cf" fill-opacity="0.60"/><circle cx="432.1" cy="14.9" r="1.04" fill="#ecc98a" fill-opacity="0.34"/><circle cx="1135.2" cy="26.7" r="0.47" fill="#efe6cf" fill-opacity="0.39"/><circle cx="316.6" cy="103.4" r="0.36" fill="#efe6cf" fill-opacity="0.33"/><circle cx="654.3" cy="71.1" r="0.83" fill="#efe6cf" fill-opacity="0.10"/><circle cx="513.8" cy="172.7" r="1.09" fill="#efe6cf" fill-opacity="0.16"/><circle cx="44.7" cy="86.6" r="0.80" fill="#efe6cf" fill-opacity="0.62"/><circle cx="657.0" cy="113.5" r="0.71" fill="#efe6cf" fill-opacity="0.09"/><circle cx="1173.5" cy="116.7" r="0.46" fill="#efe6cf" fill-opacity="0.39"/><circle cx="573.7" cy="84.5" r="0.95" fill="#ecc98a" fill-opacity="0.23"/><circle cx="69.0" cy="58.6" r="0.56" fill="#efe6cf" fill-opacity="0.78"/><circle cx="1103.9" cy="34.0" r="0.78" fill="#efe6cf" fill-opacity="0.48"/><circle cx="209.3" cy="129.1" r="0.41" fill="#efe6cf" fill-opacity="0.51"/><circle cx="419.2" cy="30.5" r="0.91" fill="#efe6cf" fill-opacity="0.65"/><circle cx="871.7" cy="103.0" r="1.07" fill="#efe6cf" fill-opacity="0.53"/><circle cx="551.2" cy="141.7" r="0.78" fill="#efe6cf" fill-opacity="0.17"/><circle cx="822.7" cy="123.5" r="1.08" fill="#efe6cf" fill-opacity="0.56"/><circle cx="842.1" cy="60.2" r="0.85" fill="#efe6cf" fill-opacity="0.71"/><circle cx="50.7" cy="91.3" r="0.64" fill="#efe6cf" fill-opacity="0.38"/><circle cx="286.6" cy="91.4" r="0.98" fill="#efe6cf" fill-opacity="0.37"/><circle cx="789.6" cy="167.2" r="1.05" fill="#efe6cf" fill-opacity="0.12"/><circle cx="1155.0" cy="104.3" r="1.07" fill="#ecc98a" fill-opacity="0.45"/><circle cx="822.4" cy="55.3" r="0.86" fill="#efe6cf" fill-opacity="0.71"/><circle cx="1186.3" cy="3.9" r="0.69" fill="#efe6cf" fill-opacity="0.57"/><circle cx="710.1" cy="1.0" r="1.08" fill="#efe6cf" fill-opacity="0.53"/><circle cx="1125.6" cy="15.5" r="0.80" fill="#ecc98a" fill-opacity="0.72"/><circle cx="543.8" cy="178.5" r="1.09" fill="#efe6cf" fill-opacity="0.18"/><circle cx="202.6" cy="5.0" r="0.97" fill="#efe6cf" fill-opacity="0.63"/><circle cx="156.4" cy="29.0" r="0.71" fill="#efe6cf" fill-opacity="0.56"/><circle cx="616.8" cy="90.1" r="1.06" fill="#ecc98a" fill-opacity="0.23"/><circle cx="296.5" cy="2.4" r="1.08" fill="#efe6cf" fill-opacity="0.68"/><circle cx="740.7" cy="63.7" r="0.95" fill="#efe6cf" fill-opacity="0.17"/><circle cx="121.9" cy="83.1" r="0.95" fill="#ecc98a" fill-opacity="0.32"/><circle cx="1019.4" cy="4.5" r="0.60" fill="#ecc98a" fill-opacity="0.69"/><circle cx="260.7" cy="72.3" r="0.76" fill="#efe6cf" fill-opacity="0.63"/><circle cx="279.2" cy="79.5" r="0.94" fill="#efe6cf" fill-opacity="0.26"/><circle cx="605.4" cy="37.0" r="1.01" fill="#ecc98a" fill-opacity="0.40"/><circle cx="585.5" cy="61.6" r="0.59" fill="#efe6cf" fill-opacity="0.12"/><circle cx="826.2" cy="130.0" r="0.55" fill="#efe6cf" fill-opacity="0.37"/><circle cx="262.8" cy="21.6" r="1.12" fill="#efe6cf" fill-opacity="0.35"/><circle cx="289.6" cy="18.9" r="1.06" fill="#efe6cf" fill-opacity="0.44"/><circle cx="268.8" cy="18.3" r="0.54" fill="#efe6cf" fill-opacity="0.41"/><circle cx="1067.3" cy="162.4" r="1.06" fill="#efe6cf" fill-opacity="0.74"/><circle cx="871.3" cy="43.1" r="1.14" fill="#efe6cf" fill-opacity="0.78"/><circle cx="171.4" cy="178.8" r="0.80" fill="#efe6cf" fill-opacity="0.40"/><circle cx="545.3" cy="132.7" r="0.97" fill="#efe6cf" fill-opacity="0.12"/><circle cx="889.8" cy="20.6" r="0.76" fill="#ecc98a" fill-opacity="0.46"/><circle cx="983.4" cy="45.6" r="0.99" fill="#ecc98a" fill-opacity="0.59"/><circle cx="770.9" cy="1.3" r="0.42" fill="#efe6cf" fill-opacity="0.41"/><circle cx="504.3" cy="5.6" r="0.82" fill="#efe6cf" fill-opacity="0.73"/><circle cx="1019.2" cy="25.7" r="0.79" fill="#efe6cf" fill-opacity="0.70"/><circle cx="1031.3" cy="133.3" r="0.68" fill="#efe6cf" fill-opacity="0.36"/><circle cx="882.5" cy="60.9" r="0.84" fill="#ecc98a" fill-opacity="0.51"/><circle cx="671.3" cy="69.1" r="0.96" fill="#efe6cf" fill-opacity="0.23"/><circle cx="972.6" cy="129.2" r="0.76" fill="#efe6cf" fill-opacity="0.72"/><circle cx="207.2" cy="115.8" r="0.98" fill="#efe6cf" fill-opacity="0.75"/><circle cx="958.5" cy="28.3" r="0.67" fill="#ecc98a" fill-opacity="0.33"/><circle cx="297.6" cy="121.3" r="0.80" fill="#efe6cf" fill-opacity="0.39"/><circle cx="268.0" cy="174.4" r="0.75" fill="#efe6cf" fill-opacity="0.69"/><circle cx="1162.5" cy="10.1" r="0.43" fill="#efe6cf" fill-opacity="0.77"/><circle cx="160.8" cy="146.0" r="0.50" fill="#efe6cf" fill-opacity="0.39"/><circle cx="852.2" cy="165.7" r="0.33" fill="#efe6cf" fill-opacity="0.78"/><circle cx="826.0" cy="37.0" r="0.96" fill="#ecc98a" fill-opacity="0.46"/><circle cx="1071.1" cy="67.3" r="0.33" fill="#ecc98a" fill-opacity="0.59"/><circle cx="455.8" cy="95.7" r="0.37" fill="#efe6cf" fill-opacity="0.14"/><circle cx="859.2" cy="138.8" r="0.59" fill="#efe6cf" fill-opacity="0.78"/><circle cx="1117.0" cy="150.4" r="1.08" fill="#efe6cf" fill-opacity="0.62"/><circle cx="752.6" cy="47.2" r="0.67" fill="#efe6cf" fill-opacity="0.27"/><circle cx="1153.4" cy="114.4" r="0.47" fill="#efe6cf" fill-opacity="0.32"/><circle cx="203.7" cy="107.3" r="0.45" fill="#efe6cf" fill-opacity="0.38"/><circle cx="587.5" cy="12.4" r="0.49" fill="#ecc98a" fill-opacity="0.52"/><circle cx="542.0" cy="175.9" r="0.80" fill="#ecc98a" fill-opacity="0.13"/><circle cx="1150.9" cy="130.1" r="1.15" fill="#ecc98a" fill-opacity="0.28"/><circle cx="542.9" cy="80.5" r="0.44" fill="#efe6cf" fill-opacity="0.16"/><circle cx="216.4" cy="89.7" r="0.99" fill="#ecc98a" fill-opacity="0.76"/><circle cx="790.4" cy="30.4" r="0.60" fill="#ecc98a" fill-opacity="0.55"/><circle cx="470.5" cy="54.6" r="0.69" fill="#ecc98a" fill-opacity="0.73"/><circle cx="302.6" cy="45.6" r="1.09" fill="#efe6cf" fill-opacity="0.79"/><circle cx="179.6" cy="3.7" r="1.09" fill="#efe6cf" fill-opacity="0.55"/><circle cx="1017.5" cy="17.0" r="0.47" fill="#efe6cf" fill-opacity="0.68"/><circle cx="20.0" cy="19.6" r="0.54" fill="#efe6cf" fill-opacity="0.60"/><circle cx="457.4" cy="151.1" r="0.85" fill="#efe6cf" fill-opacity="0.16"/><circle cx="466.5" cy="21.8" r="0.65" fill="#efe6cf" fill-opacity="0.77"/><circle cx="435.0" cy="166.8" r="0.87" fill="#efe6cf" fill-opacity="0.15"/><circle cx="1090.5" cy="59.3" r="0.88" fill="#efe6cf" fill-opacity="0.59"/><circle cx="366.0" cy="138.2" r="0.38" fill="#efe6cf" fill-opacity="0.64"/><circle cx="1054.2" cy="57.7" r="0.35" fill="#efe6cf" fill-opacity="0.60"/><circle cx="342.9" cy="77.4" r="1.06" fill="#efe6cf" fill-opacity="0.45"/><rect x="360" y="44" width="480" height="1.3" fill="url(#fdiv)"/><g transform="translate(564,66) scale(4.5)" shape-rendering="crispEdges"><rect x="3" y="0" width="1.02" height="1.02" fill="#c9a86a"/><rect x="4" y="0" width="1.02" height="1.02" fill="#c9a86a"/><rect x="11" y="0" width="1.02" height="1.02" fill="#c9a86a"/><rect x="12" y="0" width="1.02" height="1.02" fill="#c9a86a"/><rect x="2" y="1" width="1.02" height="1.02" fill="#c9a86a"/><rect x="3" y="1" width="1.02" height="1.02" fill="#c9a86a"/><rect x="4" y="1" width="1.02" height="1.02" fill="#c9a86a"/><rect x="5" y="1" width="1.02" height="1.02" fill="#c9a86a"/><rect x="10" y="1" width="1.02" height="1.02" fill="#c9a86a"/><rect x="11" y="1" width="1.02" height="1.02" fill="#c9a86a"/><rect x="12" y="1" width="1.02" height="1.02" fill="#c9a86a"/><rect x="13" y="1" width="1.02" height="1.02" fill="#c9a86a"/><rect x="2" y="2" width="1.02" height="1.02" fill="#c9a86a"/><rect x="5" y="2" width="1.02" height="1.02" fill="#c9a86a"/><rect x="10" y="2" width="1.02" height="1.02" fill="#c9a86a"/><rect x="13" y="2" width="1.02" height="1.02" fill="#c9a86a"/><rect x="2" y="3" width="1.02" height="1.02" fill="#c9a86a"/><rect x="3" y="3" width="1.02" height="1.02" fill="#c9a86a"/><rect x="4" y="3" width="1.02" height="1.02" fill="#c9a86a"/><rect x="5" y="3" width="1.02" height="1.02" fill="#c9a86a"/><rect x="6" y="3" width="1.02" height="1.02" fill="#c9a86a"/><rect x="7" y="3" width="1.02" height="1.02" fill="#c9a86a"/><rect x="8" y="3" width="1.02" height="1.02" fill="#c9a86a"/><rect x="9" y="3" width="1.02" height="1.02" fill="#c9a86a"/><rect x="10" y="3" width="1.02" height="1.02" fill="#c9a86a"/><rect x="11" y="3" width="1.02" height="1.02" fill="#c9a86a"/><rect x="12" y="3" width="1.02" height="1.02" fill="#c9a86a"/><rect x="13" y="3" width="1.02" height="1.02" fill="#c9a86a"/><rect x="3" y="4" width="1.02" height="1.02" fill="#c9a86a"/><rect x="4" y="4" width="1.02" height="1.02" fill="#c9a86a"/><rect x="5" y="4" width="1.02" height="1.02" fill="#c9a86a"/><rect x="6" y="4" width="1.02" height="1.02" fill="#c9a86a"/><rect x="7" y="4" width="1.02" height="1.02" fill="#c9a86a"/><rect x="8" y="4" width="1.02" height="1.02" fill="#c9a86a"/><rect x="9" y="4" width="1.02" height="1.02" fill="#c9a86a"/><rect x="10" y="4" width="1.02" height="1.02" fill="#c9a86a"/><rect x="11" y="4" width="1.02" height="1.02" fill="#c9a86a"/><rect x="12" y="4" width="1.02" height="1.02" fill="#c9a86a"/><rect x="3" y="5" width="1.02" height="1.02" fill="#c9a86a"/><rect x="4" y="5" width="1.02" height="1.02" fill="#c9a86a"/><rect x="5" y="5" width="1.02" height="1.02" fill="#c9a86a"/><rect x="6" y="5" width="1.02" height="1.02" fill="#c9a86a"/><rect x="7" y="5" width="1.02" height="1.02" fill="#c9a86a"/><rect x="8" y="5" width="1.02" height="1.02" fill="#c9a86a"/><rect x="9" y="5" width="1.02" height="1.02" fill="#c9a86a"/><rect x="10" y="5" width="1.02" height="1.02" fill="#c9a86a"/><rect x="11" y="5" width="1.02" height="1.02" fill="#c9a86a"/><rect x="12" y="5" width="1.02" height="1.02" fill="#c9a86a"/><rect x="3" y="6" width="1.02" height="1.02" fill="#c9a86a"/><rect x="4" y="6" width="1.02" height="1.02" fill="#c9a86a"/><rect x="5" y="6" width="1.02" height="1.02" fill="#c9a86a"/><rect x="6" y="6" width="1.02" height="1.02" fill="#c9a86a"/><rect x="7" y="6" width="1.02" height="1.02" fill="#c9a86a"/><rect x="8" y="6" width="1.02" height="1.02" fill="#c9a86a"/><rect x="9" y="6" width="1.02" height="1.02" fill="#c9a86a"/><rect x="10" y="6" width="1.02" height="1.02" fill="#c9a86a"/><rect x="11" y="6" width="1.02" height="1.02" fill="#c9a86a"/><rect x="12" y="6" width="1.02" height="1.02" fill="#c9a86a"/><rect x="3" y="7" width="1.02" height="1.02" fill="#c9a86a"/><rect x="4" y="7" width="1.02" height="1.02" fill="#c9a86a"/><rect x="5" y="7" width="1.02" height="1.02" fill="#c9a86a"/><rect x="6" y="7" width="1.02" height="1.02" fill="#c9a86a"/><rect x="7" y="7" width="1.02" height="1.02" fill="#c9a86a"/><rect x="8" y="7" width="1.02" height="1.02" fill="#c9a86a"/><rect x="9" y="7" width="1.02" height="1.02" fill="#c9a86a"/><rect x="10" y="7" width="1.02" height="1.02" fill="#c9a86a"/><rect x="11" y="7" width="1.02" height="1.02" fill="#c9a86a"/><rect x="12" y="7" width="1.02" height="1.02" fill="#c9a86a"/><rect x="4" y="8" width="1.02" height="1.02" fill="#c9a86a"/><rect x="5" y="8" width="1.02" height="1.02" fill="#c9a86a"/><rect x="6" y="8" width="1.02" height="1.02" fill="#c9a86a"/><rect x="7" y="8" width="1.02" height="1.02" fill="#c9a86a"/><rect x="8" y="8" width="1.02" height="1.02" fill="#c9a86a"/><rect x="9" y="8" width="1.02" height="1.02" fill="#c9a86a"/><rect x="10" y="8" width="1.02" height="1.02" fill="#c9a86a"/><rect x="11" y="8" width="1.02" height="1.02" fill="#c9a86a"/><rect x="4" y="9" width="1.02" height="1.02" fill="#c9a86a"/><rect x="5" y="9" width="1.02" height="1.02" fill="#c9a86a"/><rect x="6" y="9" width="1.02" height="1.02" fill="#c9a86a"/><rect x="7" y="9" width="1.02" height="1.02" fill="#c9a86a"/><rect x="8" y="9" width="1.02" height="1.02" fill="#c9a86a"/><rect x="9" y="9" width="1.02" height="1.02" fill="#c9a86a"/><rect x="10" y="9" width="1.02" height="1.02" fill="#c9a86a"/><rect x="11" y="9" width="1.02" height="1.02" fill="#c9a86a"/><rect x="5" y="10" width="1.02" height="1.02" fill="#c9a86a"/><rect x="6" y="10" width="1.02" height="1.02" fill="#c9a86a"/><rect x="7" y="10" width="1.02" height="1.02" fill="#c9a86a"/><rect x="8" y="10" width="1.02" height="1.02" fill="#c9a86a"/><rect x="9" y="10" width="1.02" height="1.02" fill="#c9a86a"/><rect x="10" y="10" width="1.02" height="1.02" fill="#c9a86a"/><rect x="6" y="11" width="1.02" height="1.02" fill="#c9a86a"/><rect x="7" y="11" width="1.02" height="1.02" fill="#c9a86a"/><rect x="8" y="11" width="1.02" height="1.02" fill="#c9a86a"/><rect x="9" y="11" width="1.02" height="1.02" fill="#c9a86a"/><rect x="7" y="12" width="1.02" height="1.02" fill="#c9a86a"/><rect x="8" y="12" width="1.02" height="1.02" fill="#c9a86a"/><rect x="3" y="4" width="1.02" height="1.02" fill="#e2c98a"/><rect x="4" y="4" width="1.02" height="1.02" fill="#e2c98a"/><rect x="3" y="5" width="1.02" height="1.02" fill="#e2c98a"/><rect x="12" y="5" width="1.02" height="1.02" fill="#8f6f3a"/><rect x="12" y="6" width="1.02" height="1.02" fill="#8f6f3a"/><rect x="11" y="7" width="1.02" height="1.02" fill="#8f6f3a"/><rect x="11" y="8" width="1.02" height="1.02" fill="#8f6f3a"/><rect x="11" y="9" width="1.02" height="1.02" fill="#8f6f3a"/><rect x="10" y="10" width="1.02" height="1.02" fill="#8f6f3a"/><rect x="9" y="11" width="1.02" height="1.02" fill="#8f6f3a"/><rect x="8" y="4" width="1.02" height="1.02" fill="#8f6f3a"/><rect x="5" y="8" width="1.02" height="1.02" fill="#8f6f3a"/><rect x="5" y="6" width="1.02" height="1.02" fill="#8f6f3a"/><rect x="6" y="6" width="1.02" height="1.02" fill="#8f6f3a"/><rect x="9" y="6" width="1.02" height="1.02" fill="#8f6f3a"/><rect x="10" y="6" width="1.02" height="1.02" fill="#8f6f3a"/><rect x="3" y="2" width="1.02" height="1.02" fill="#4a3a22"/><rect x="4" y="2" width="1.02" height="1.02" fill="#4a3a22"/><rect x="11" y="2" width="1.02" height="1.02" fill="#4a3a22"/><rect x="12" y="2" width="1.02" height="1.02" fill="#4a3a22"/><rect x="6" y="9" width="1.02" height="1.02" fill="#4a3a22"/><rect x="7" y="9" width="1.02" height="1.02" fill="#4a3a22"/><rect x="8" y="9" width="1.02" height="1.02" fill="#4a3a22"/><rect x="9" y="9" width="1.02" height="1.02" fill="#4a3a22"/><rect x="7" y="12" width="1.02" height="1.02" fill="#4a3a22"/><rect x="8" y="12" width="1.02" height="1.02" fill="#4a3a22"/><rect x="5" y="7" width="1.02" height="1.02" fill="#241b12"/><rect x="10" y="7" width="1.02" height="1.02" fill="#241b12"/><rect x="7" y="10" width="1.02" height="1.02" fill="#241b12"/><rect x="8" y="10" width="1.02" height="1.02" fill="#241b12"/></g><text x="600" y="168" fill="#efe6cf" font-size="40" font-weight="600" font-family="'Source Han Serif TC','Noto Serif TC',Georgia,serif" letter-spacing="5" text-anchor="middle">hyenovel</text><text x="600" y="204" fill="#9a9488" font-size="18" font-family="'Source Han Serif TC','Noto Serif TC',Georgia,serif" letter-spacing="4" text-anchor="middle">陪你拆解故事骨幹的討論夥伴</text></svg>
